<svg xmlns="http://www.w3.org/2000/svg" width="94" height="47" fill="none"><path fill="#333" d="M45.5 13h47.67v-1H45.5z"/><path fill="#333" d="M75.298 1.195 93.059 13l.441-1.195L75.738 0z"/><path fill="#0C797A" d="M48.5 1H.83v1.077H48.5z"/><path fill="#0C797A" d="M18.702 13.713.941 1 .5 2.287 18.262 15zM49.172 35.625l-2.578 9.578h-.844l2.578-9.578z"/><path fill="#333" d="M29.5 41.16q-1.284 0-2.187-.7-.904-.705-1.381-2.04-.477-1.34-.477-3.238 0-1.887.477-3.222.483-1.341 1.386-2.045.909-.71 2.182-.71t2.176.71q.909.704 1.387 2.045.483 1.335.482 3.222 0 1.897-.477 3.238-.477 1.335-1.38 2.04-.904.7-2.188.7m0-1.25q1.273 0 1.977-1.228t.705-3.5q0-1.512-.324-2.574-.318-1.062-.92-1.62a2.03 2.03 0 0 0-1.438-.556q-1.26 0-1.972 1.244-.71 1.238-.71 3.506 0 1.51.318 2.568.319 1.057.915 1.608.603.55 1.449.551m10.295-10.546V41h-1.409V30.84h-.068l-2.84 1.887v-1.431l2.908-1.932z"/><path fill="#0C797A" d="M56.938 45.11q-.883 0-1.504-.481-.62-.484-.95-1.402-.328-.922-.328-2.227 0-1.297.328-2.215.333-.921.953-1.406.626-.489 1.5-.488.876 0 1.497.488.624.485.953 1.406.332.918.332 2.215 0 1.305-.328 2.227-.329.918-.95 1.402-.62.48-1.504.48m0-.86q.874 0 1.359-.844.484-.843.484-2.406 0-1.04-.222-1.77-.219-.73-.633-1.113a1.4 1.4 0 0 0-.989-.383q-.867 0-1.355.856-.488.851-.488 2.41 0 1.039.218 1.766.219.726.63 1.105.413.38.995.379m6.968.86a3.4 3.4 0 0 1-1.379-.266 2.36 2.36 0 0 1-.957-.739A2 2 0 0 1 61.187 43h.985q.031.386.266.668.234.277.613.43.378.152.84.152.515 0 .914-.18.398-.18.625-.5t.226-.742q0-.441-.219-.777a1.45 1.45 0 0 0-.64-.532q-.422-.19-1.031-.19h-.641v-.86h.64q.477 0 .837-.172.363-.172.566-.484.207-.314.207-.735 0-.405-.18-.707a1.23 1.23 0 0 0-.507-.469 1.64 1.64 0 0 0-.766-.168q-.414 0-.781.153-.364.148-.594.433a1.13 1.13 0 0 0-.25.68h-.938q.024-.629.38-1.102.354-.476.929-.742a3 3 0 0 1 1.27-.265q.742 0 1.273.3.531.297.816.786.285.488.285 1.054 0 .675-.355 1.153a1.8 1.8 0 0 1-.957.66v.062q.758.125 1.184.645.425.516.425 1.277 0 .653-.355 1.172a2.4 2.4 0 0 1-.961.813 3.1 3.1 0 0 1-1.387.296"/></svg>