<svg xmlns="http://www.w3.org/2000/svg" width="22" height="17" fill="none"><path fill="#4F4F4F" d="M19.421 2.676q1.482-.86 1.962-2.353c-.902.462-1.87.797-2.873.996C17.65.444 16.563 0 15.259 0c-1.275 0-2.352.423-3.23 1.247-.425.391-.76.86-.987 1.379a3.9 3.9 0 0 0-.329 1.635c0 .358.048.677.143.948-3.759-.122-6.87-1.598-9.322-4.44C1.118 1.465.91 2.173.91 2.905q0 2.259 2.01 3.574c-.764-.061-1.437-.244-2.01-.544 0 1.075.333 1.973 1.002 2.763a4.47 4.47 0 0 0 2.585 1.493 5 5 0 0 1-1.197.137q-.571.002-.811-.096c.28.876.811 1.586 1.577 2.13a4.63 4.63 0 0 0 2.63.86c-1.628 1.209-3.489 1.807-5.595 1.807-.515 0-.88-.007-1.102-.044 2.074 1.275 4.383 1.908 6.937 1.908q3.92 0 6.934-1.882c2.01-1.247 3.495-2.785 4.448-4.597a11.9 11.9 0 0 0 1.432-5.66v-.542A9.3 9.3 0 0 0 22 1.99c-.823.338-1.69.568-2.579.686"/></svg>